<?xml version="1.0" encoding="utf-8"?>
<svg version="1.1" id="Warstwa_1"
	xmlns="http://www.w3.org/2000/svg"
	xmlns:xlink="http://www.w3.org/1999/xlink" x="0px" y="0px" viewBox="0 0 175 175" style="enable-background:new 0 0 175 175;" xml:space="preserve"
	width="91"
	height="120">
	<style type="text/css">
	.st0{fill:#FFFFFF;}
	.st1{fill:none;stroke:#FFFFFF;stroke-width:14.9831;stroke-miterlimit:10;}
	</style>
	<g>
		<rect x="88.3" y="115.9" class="st0" width="7.6" height="7.6"/>
		<rect x="128.2" y="107" class="st0" width="7.6" height="7.6"/>
		<rect x="128.2" y="97.2" class="st0" width="7.6" height="7.6"/>
		<rect x="128.2" y="87.6" class="st0" width="7.6" height="7.6"/>
		<rect x="128.2" y="78" class="st0" width="7.6" height="7.6"/>
		<rect x="48.2" y="116.5" class="st0" width="7.6" height="7.6"/>
		<rect x="118.2" y="116.5" class="st0" width="7.6" height="7.6"/>
		<rect x="58.3" y="107" class="st0" width="7.6" height="7.6"/>
		<rect x="78.2" y="107" class="st0" width="7.6" height="7.6"/>
		<rect x="98.2" y="107" class="st0" width="7.6" height="7.6"/>
		<rect x="118.2" y="107" class="st0" width="7.6" height="7.6"/>
		<rect x="48.2" y="97.2" class="st0" width="7.6" height="7.6"/>
		<rect x="58.3" y="97.2" class="st0" width="7.6" height="7.6"/>
		<rect x="58.1" y="125.7" class="st0" width="7.6" height="7.6"/>
		<rect x="88.3" y="97.2" class="st0" width="7.6" height="7.6"/>
		<rect x="98.2" y="97.2" class="st0" width="7.6" height="7.6"/>
		<rect x="108.1" y="97.2" class="st0" width="7.6" height="7.6"/>
		<rect x="48.2" y="87.6" class="st0" width="7.6" height="7.6"/>
		<rect x="58.3" y="87.6" class="st0" width="7.6" height="7.6"/>
		<rect x="68.2" y="87.6" class="st0" width="7.6" height="7.6"/>
		<rect x="78.2" y="87.6" class="st0" width="7.6" height="7.6"/>
		<rect x="88.3" y="87.6" class="st0" width="7.6" height="7.6"/>
		<rect x="108.1" y="87.6" class="st0" width="7.6" height="7.6"/>
		<rect x="48.2" y="78" class="st0" width="7.6" height="7.6"/>
		<rect x="58.3" y="78" class="st0" width="7.6" height="7.6"/>
		<rect x="78.2" y="78" class="st0" width="7.6" height="7.6"/>
		<rect x="88.3" y="78" class="st0" width="7.6" height="7.6"/>
		<rect x="98.2" y="78" class="st0" width="7.6" height="7.6"/>
		<rect x="108.1" y="78" class="st0" width="7.6" height="7.6"/>
		<rect x="128.2" y="68.2" class="st0" width="7.6" height="7.6"/>
		<rect x="128.2" y="58.6" class="st0" width="7.6" height="7.6"/>
		<rect x="128.2" y="48.9" class="st0" width="7.6" height="7.6"/>
		<polygon class="st0" points="128.2,39.3 134,41.3 135.8,46.9 128.2,46.9 	"/>
		<rect x="88.3" y="29.4" class="st0" width="7.6" height="7.6"/>
		<rect x="98.2" y="29.4" class="st0" width="7.6" height="7.6"/>
		<rect x="108.3" y="29.4" class="st0" width="7.6" height="7.6"/>
		<rect x="118.2" y="29.4" class="st0" width="7.6" height="7.6"/>
		<rect x="88.3" y="19.7" class="st0" width="7.6" height="7.6"/>
		<rect x="98.2" y="19.7" class="st0" width="7.6" height="7.6"/>
		<polygon class="st0" points="108.3,19.7 114.2,21 115.8,27.4 108.3,27.4 	"/>
		<rect x="48.2" y="29.4" class="st0" width="7.6" height="7.6"/>
		<rect x="58.1" y="29.4" class="st0" width="7.6" height="7.6"/>
		<rect x="68.1" y="29.4" class="st0" width="7.6" height="7.6"/>
		<rect x="78.2" y="29.4" class="st0" width="7.6" height="7.6"/>
		<polygon class="st0" points="59.8,21.3 65.8,19.7 65.8,27.4 58.1,27.4 	"/>
		<rect x="68.1" y="19.7" class="st0" width="7.6" height="7.6"/>
		<rect x="78.2" y="19.7" class="st0" width="7.6" height="7.6"/>
		<rect x="58.3" y="68.2" class="st0" width="7.6" height="7.6"/>
		<rect x="68.2" y="68.2" class="st0" width="7.6" height="7.6"/>
		<rect x="78.2" y="68.2" class="st0" width="7.6" height="7.6"/>
		<rect x="88.3" y="68.2" class="st0" width="7.6" height="7.6"/>
		<rect x="98.2" y="68.2" class="st0" width="7.6" height="7.6"/>
		<rect x="118.2" y="68.2" class="st0" width="7.6" height="7.6"/>
		<rect x="58.3" y="58.6" class="st0" width="7.6" height="7.6"/>
		<rect x="68.2" y="58.6" class="st0" width="7.6" height="7.6"/>
		<rect x="78.2" y="58.6" class="st0" width="7.6" height="7.6"/>
		<rect x="88.3" y="58.6" class="st0" width="7.6" height="7.6"/>
		<rect x="98.2" y="58.6" class="st0" width="7.6" height="7.6"/>
		<rect x="108.1" y="58.6" class="st0" width="7.6" height="7.6"/>
		<rect x="118.2" y="58.6" class="st0" width="7.6" height="7.6"/>
		<rect x="48.2" y="48.9" class="st0" width="7.6" height="7.6"/>
		<rect x="58.3" y="48.9" class="st0" width="7.6" height="7.6"/>
		<rect x="68.2" y="48.9" class="st0" width="7.6" height="7.6"/>
		<rect x="78.2" y="48.9" class="st0" width="7.6" height="7.6"/>
		<rect x="88.3" y="48.9" class="st0" width="7.6" height="7.6"/>
		<rect x="98.2" y="48.9" class="st0" width="7.6" height="7.6"/>
		<rect x="108.1" y="48.9" class="st0" width="7.6" height="7.6"/>
		<rect x="118.2" y="48.9" class="st0" width="7.6" height="7.6"/>
		<rect x="48.2" y="39.3" class="st0" width="7.6" height="7.6"/>
		<rect x="58.3" y="39.3" class="st0" width="7.6" height="7.6"/>
		<rect x="68.2" y="39.3" class="st0" width="7.6" height="7.6"/>
		<rect x="78.2" y="39.3" class="st0" width="7.6" height="7.6"/>
		<rect x="88.3" y="39.3" class="st0" width="7.6" height="7.6"/>
		<rect x="98.2" y="39.3" class="st0" width="7.6" height="7.6"/>
		<rect x="108.1" y="39.3" class="st0" width="7.6" height="7.6"/>
		<rect x="38.3" y="107" class="st0" width="7.6" height="7.6"/>
		<rect x="38.3" y="97.2" class="st0" width="7.6" height="7.6"/>
		<rect x="38.3" y="78" class="st0" width="7.6" height="7.6"/>
		<rect x="38.3" y="68.2" class="st0" width="7.6" height="7.6"/>
		<rect x="38.3" y="58.6" class="st0" width="7.6" height="7.6"/>
		<rect x="38.3" y="48.9" class="st0" width="7.6" height="7.6"/>
		<polygon class="st0" points="40.4,40.7 45.9,39.3 45.9,46.9 38.3,46.9 	"/>
		<rect x="118.2" y="39.3" class="st0" width="7.6" height="7.6"/>
	</g>
	<path class="st1" d="M87,12.7L87,12.7c-30.9,0-55.8,25.1-55.8,55.8v93h111.9v-93C143,37.8,117.9,12.7,87,12.7z"/>
</svg>
