<?xml version="1.0" encoding="utf-8"?>
<!-- Generator: Adobe Illustrator 23.0.2, SVG Export Plug-In . SVG Version: 6.00 Build 0)  -->
<svg version="1.1" id="Warstwa_1" xmlns="http://www.w3.org/2000/svg" xmlns:xlink="http://www.w3.org/1999/xlink" x="0px" y="0px"
	 viewBox="0 0 500 500" style="enable-background:new 0 0 500 500;" xml:space="preserve">
<style type="text/css">
	.st0{fill:none;stroke:#D5233F;stroke-width:20;}
	.st1{fill:none;stroke:#D5233F;stroke-width:30;stroke-linecap:round;}
	.st2{fill:#D5233F;}
</style>
<path class="st0" d="M98.4,381.8"/>
<path class="st1" d="M277.8,214.3"/>
<path class="st2" d="M418.4,434.6H68.5c-14,0-26.5-7.2-33.4-19.3c-7-12.1-6.9-26.5,0-38.5L210,73.8c0,0,0,0,0,0
	c7-12,19.4-19.2,33.3-19.3c0,0,0.1,0,0.1,0c13.9,0,26.4,7.2,33.4,19.2l174.9,303.1c7,12,7,26.4,0,38.5
	C444.9,427.4,432.4,434.6,418.4,434.6z M236,88.8l-174.9,303c-2.2,3.8-0.8,7.2,0,8.5c0.7,1.3,3,4.3,7.4,4.3h349.9
	c4.5,0,6.7-3,7.4-4.3c0.7-1.3,2.2-4.7,0-8.5l-174.9-303c-2.3-3.8-6-4.3-7.5-4.3c0,0,0,0,0,0C241.9,84.5,238.2,85,236,88.8z"/>
<path class="st2" d="M243.2,322.6c-8.3,0-15-6.7-15-15V177.7c0-8.3,6.7-15,15-15s15,6.7,15,15v129.9
	C258.2,315.9,251.5,322.6,243.2,322.6z"/>
<circle class="st2" cx="242.9" cy="353.8" r="14.2"/>
</svg>
